<?xml version="1.0" encoding="UTF-8"?>
<svg version="1.1" xmlns="http://www.w3.org/2000/svg" width="2013" height="889">
<path d="M0 0 C0.68964844 0.65871094 1.37929687 1.31742187 2.08984375 1.99609375 C2.68667969 2.54136719 3.28351563 3.08664062 3.8984375 3.6484375 C22.20482248 20.94014987 32.993494 44.6835076 38.08984375 68.99609375 C38.08984375 69.65609375 38.08984375 70.31609375 38.08984375 70.99609375 C38.74984375 70.99609375 39.40984375 70.99609375 40.08984375 70.99609375 C40.08984375 103.66609375 40.08984375 136.33609375 40.08984375 169.99609375 C41.07984375 170.32609375 42.06984375 170.65609375 43.08984375 170.99609375 C42.75984375 172.31609375 42.42984375 173.63609375 42.08984375 174.99609375 C41.42984375 174.99609375 40.76984375 174.99609375 40.08984375 174.99609375 C39.41925578 186.21951182 39.41925578 186.21951182 42.7265625 196.53515625 C44.77158904 198.17896806 46.8859981 199.57556709 49.08984375 200.99609375 C67.39463845 219.60380467 69.46519551 253.79404236 69.390625 278.13354492 C69.0977957 298.3139285 66.55754946 318.77012254 52.08984375 333.99609375 C51.30609375 334.84171875 50.52234375 335.68734375 49.71484375 336.55859375 C35.38853084 349.8615986 35.38853084 349.8615986 26.77734375 352.12109375 C25.79991211 352.39373047 25.79991211 352.39373047 24.80273438 352.671875 C20.80600664 353.73606877 17.21916589 354.18815524 13.08984375 353.99609375 C12.82042969 354.71925781 12.55101562 355.44242188 12.2734375 356.1875 C6.4465611 370.01431231 -4.7876815 382.39654999 -15.59765625 392.59375 C-17.84294077 394.92626686 -19.27577399 397.22391146 -20.91015625 399.99609375 C-22.57682292 400.66276042 -24.24348958 401.32942708 -25.91015625 401.99609375 C-27.98041513 403.67283235 -29.93500937 405.45049061 -31.90625 407.2421875 C-34.43285515 409.45358265 -37.06653038 411.21882758 -39.91015625 412.99609375 C-39.51183594 413.42019531 -39.11351562 413.84429688 -38.703125 414.28125 C-33.69835832 419.82180679 -30.19310154 425.14122025 -30.5703125 432.95703125 C-31.69465316 439.70307519 -35.51431134 444.23944854 -40.70703125 448.4609375 C-52.03141252 456.35186275 -65.81456916 457.42630192 -79.19140625 455.53125 C-88.73568982 453.45266247 -96.58662322 449.26755288 -102.8515625 441.70703125 C-104.01758016 439.82247134 -104.48939755 438.16134641 -104.91015625 435.99609375 C-105.90015625 436.32609375 -106.89015625 436.65609375 -107.91015625 436.99609375 C-109.24541342 437.07582851 -110.58427708 437.10380713 -111.921875 437.09375 C-112.67919922 437.09052734 -113.43652344 437.08730469 -114.21679688 437.08398438 C-115.00248047 437.07560547 -115.78816406 437.06722656 -116.59765625 437.05859375 C-117.39494141 437.05408203 -118.19222656 437.04957031 -119.01367188 437.04492188 C-120.97919882 437.03315225 -122.9446871 437.01521723 -124.91015625 436.99609375 C-125.28333984 438.12337891 -125.28333984 438.12337891 -125.6640625 439.2734375 C-128.57546647 445.63471828 -135.28918368 449.00110747 -141.59765625 451.37109375 C-155.44211818 456.08846596 -171.02842791 455.28584833 -184.28515625 449.12109375 C-190.94388279 445.44636085 -195.45693681 441.25873208 -197.91015625 433.99609375 C-198.55490598 428.65388171 -197.52593965 425.62401822 -194.91015625 420.99609375 C-194.22766335 419.33584507 -193.55831861 417.6700435 -192.91015625 415.99609375 C-193.62558594 415.53460937 -194.34101562 415.073125 -195.078125 414.59765625 C-200.89823965 410.78785287 -206.59919629 406.86184942 -212.16015625 402.68359375 C-212.7327417 402.26352051 -213.30532715 401.84344727 -213.89526367 401.41064453 C-215.48828125 400.1953125 -215.48828125 400.1953125 -217.91015625 397.99609375 C-217.91015625 397.00609375 -217.91015625 396.01609375 -217.91015625 394.99609375 C-218.90015625 394.99609375 -219.89015625 394.99609375 -220.91015625 394.99609375 C-222.453125 393.5625 -222.453125 393.5625 -224.09765625 391.55859375 C-226.52713632 388.64321767 -229.00246021 385.82680286 -231.59765625 383.05859375 C-253.9417194 357.74393261 -266.08353863 327.39420504 -273.91015625 294.99609375 C-274.57243651 292.32830941 -275.24127707 289.66223365 -275.91015625 286.99609375 C-277.32554687 287.04830078 -277.32554687 287.04830078 -278.76953125 287.1015625 C-287.34662055 287.28240474 -294.64804764 286.54712033 -302.91015625 283.99609375 C-303.88855469 283.70992187 -304.86695313 283.42375 -305.875 283.12890625 C-308.2262895 282.43638059 -310.57026328 281.72601612 -312.91015625 280.99609375 C-312.91015625 280.00609375 -312.91015625 279.01609375 -312.91015625 277.99609375 C-312.17410156 277.95871094 -311.43804688 277.92132812 -310.6796875 277.8828125 C-303.2618101 277.51631393 -303.2618101 277.51631393 -296.91015625 273.99609375 C-295.12671447 271.92654528 -295.12671447 271.92654528 -293.91015625 269.99609375 C-294.83828125 270.47046875 -295.76640625 270.94484375 -296.72265625 271.43359375 C-301.56172403 273.5258956 -306.6719585 273.96134617 -311.91015625 273.99609375 C-312.57015625 273.66609375 -313.23015625 273.33609375 -313.91015625 272.99609375 C-315.7434955 272.97578778 -317.57750935 273.00427561 -319.41015625 273.05859375 C-330.47600348 273.09811463 -338.20427552 270.23328453 -347.91015625 264.99609375 C-349.24082653 264.32412736 -350.57304238 263.65514513 -351.91015625 262.99609375 C-351.91015625 262.00609375 -351.91015625 261.01609375 -351.91015625 259.99609375 C-350.95753906 260.09148437 -350.00492188 260.186875 -349.0234375 260.28515625 C-347.76917969 260.39601563 -346.51492188 260.506875 -345.22265625 260.62109375 C-343.98128906 260.73710938 -342.73992187 260.853125 -341.4609375 260.97265625 C-337.98135456 260.99562379 -335.98530904 260.53661006 -332.91015625 258.99609375 C-334.61171875 258.84914063 -334.61171875 258.84914063 -336.34765625 258.69921875 C-352.17293714 257.19464079 -352.17293714 257.19464079 -357.91015625 252.99609375 C-358.76738281 252.37734375 -359.62460937 251.75859375 -360.5078125 251.12109375 C-367.11643258 246.03054733 -373.62918437 240.23674989 -377.91015625 232.99609375 C-378.1484375 229.6640625 -378.1484375 229.6640625 -377.91015625 226.99609375 C-375.03515625 227.18359375 -375.03515625 227.18359375 -371.91015625 227.99609375 C-371.62140625 228.77984375 -371.33265625 229.56359375 -371.03515625 230.37109375 C-370.07898206 233.38268039 -370.07898206 233.38268039 -366.41015625 234.74609375 C-361.67288139 236.28744972 -356.86161254 236.70184737 -351.91015625 236.99609375 C-351.91015625 236.33609375 -351.91015625 235.67609375 -351.91015625 234.99609375 C-353.14765625 234.86654297 -353.14765625 234.86654297 -354.41015625 234.734375 C-358.66581479 233.83669703 -362.06980763 232.17234571 -365.91015625 230.18359375 C-366.5959375 229.84005859 -367.28171875 229.49652344 -367.98828125 229.14257812 C-372.16461739 227.01854457 -376.14902945 224.79930857 -379.91015625 221.99609375 C-379.91015625 221.33609375 -379.91015625 220.67609375 -379.91015625 219.99609375 C-380.47605469 219.91617187 -381.04195312 219.83625 -381.625 219.75390625 C-386.8510194 218.02083315 -391.23931192 212.59112386 -394.16015625 208.0546875 C-395.88065412 204.35727141 -396.20500647 201.02571347 -395.91015625 196.99609375 C-389.36866927 197.49928506 -389.36866927 197.49928506 -387.1796875 199.87109375 C-384.06910381 202.78358519 -380.88522759 203.59042527 -376.84765625 204.74609375 C-375.76774414 205.07673828 -375.76774414 205.07673828 -374.66601562 205.4140625 C-371.65641505 206.3138688 -369.06691633 206.99609375 -365.91015625 206.99609375 C-367.05613281 206.54878906 -368.20210937 206.10148438 -369.3828125 205.640625 C-370.91295838 205.03044413 -372.44289527 204.41973896 -373.97265625 203.80859375 C-374.72482422 203.51662109 -375.47699219 203.22464844 -376.25195312 202.92382812 C-381.38033374 200.85915541 -385.60587394 198.48867873 -389.91015625 194.99609375 C-389.91015625 194.33609375 -389.91015625 193.67609375 -389.91015625 192.99609375 C-390.50699219 192.73828125 -391.10382812 192.48046875 -391.71875 192.21484375 C-397.11341033 189.21460485 -399.98356146 183.52075921 -401.78515625 177.80859375 C-402.73061464 174.44515271 -403.02180193 171.48812258 -402.91015625 167.99609375 C-398.68387677 167.48381745 -396.36240373 168.73523002 -392.79296875 170.90625 C-386.8404278 174.35180794 -381.74152423 175.36205989 -374.91015625 174.99609375 C-374.91015625 174.33609375 -374.91015625 173.67609375 -374.91015625 172.99609375 C-376.16828125 172.78984375 -377.42640625 172.58359375 -378.72265625 172.37109375 C-389.55184006 169.88514904 -396.96449117 164.3080545 -402.91015625 154.99609375 C-407.8079655 146.67312735 -406.70017418 136.4802758 -404.53515625 127.43359375 C-403.62945078 124.06235672 -402.57232321 121.06748921 -400.91015625 117.99609375 C-392.83745093 119.77208892 -386.92951032 124.66639246 -380.84765625 129.99609375 C-364.14434682 144.53245176 -345.35541431 146.00373216 -323.91015625 148.99609375 C-322.33693604 149.21894043 -322.33693604 149.21894043 -320.73193359 149.44628906 C-317.68881841 149.87216176 -314.64399127 150.2814514 -311.59765625 150.68359375 C-310.73011719 150.8029126 -309.86257813 150.92223145 -308.96875 151.04516602 C-298.99698703 152.30530383 -288.94547863 152.58731922 -278.91015625 152.99609375 C-278.920149 151.78817924 -278.920149 151.78817924 -278.93034363 150.55586243 C-278.99113281 142.8658787 -279.03646819 135.17601583 -279.06559277 127.48585224 C-279.08107059 123.53481384 -279.1019692 119.58397832 -279.13647461 115.63305664 C-279.49839826 73.03761596 -273.70187611 35.68341801 -242.875 3.95703125 C-178.89582926 -60.37607567 -66.14565939 -61.74328605 0 0 Z " fill="#B87956" transform="translate(1381.91015625,274.00390625)"/>
<path d="M0 0 C0.68964844 0.65871094 1.37929688 1.31742187 2.08984375 1.99609375 C2.68667969 2.54136719 3.28351563 3.08664062 3.8984375 3.6484375 C22.20482248 20.94014987 32.993494 44.6835076 38.08984375 68.99609375 C38.08984375 69.65609375 38.08984375 70.31609375 38.08984375 70.99609375 C38.74984375 70.99609375 39.40984375 70.99609375 40.08984375 70.99609375 C40.08984375 103.66609375 40.08984375 136.33609375 40.08984375 169.99609375 C41.07984375 170.32609375 42.06984375 170.65609375 43.08984375 170.99609375 C42.75984375 172.31609375 42.42984375 173.63609375 42.08984375 174.99609375 C41.42984375 174.99609375 40.76984375 174.99609375 40.08984375 174.99609375 C40.12013672 176.08510986 40.15042969 177.17412598 40.18164062 178.29614258 C40.85622308 202.86876299 41.24303837 227.4142495 41.08984375 251.99609375 C42.73984375 252.32609375 44.38984375 252.65609375 46.08984375 252.99609375 C46.08984375 253.32609375 46.08984375 253.65609375 46.08984375 253.99609375 C44.43984375 253.99609375 42.78984375 253.99609375 41.08984375 253.99609375 C41.40698613 259.94524732 41.9132975 265.15771721 44.24853516 270.65266418 C45.2147469 273.34400621 45.74879163 275.97622047 46.296875 278.78393555 C48.54092025 289.49937255 51.51960412 300.0204058 54.40234375 310.578125 C55.01888976 312.84577149 55.63517752 315.11348822 56.2512207 317.38127136 C57.53653345 322.10956514 58.8244126 326.83714968 60.11425781 331.56420898 C61.76275566 337.60618511 63.40560507 343.64967942 65.04664612 349.69368458 C66.3160935 354.36719352 67.58810739 359.04000083 68.8609314 363.71259117 C69.4676094 365.94062241 70.07359676 368.16884183 70.67886353 370.39725685 C71.52555872 373.51268797 72.37560984 376.62718455 73.2265625 379.74145508 C73.47288422 380.65022903 73.71920593 381.55900299 73.97299194 382.49531555 C75.49879725 388.06219074 77.20504292 393.54024409 79.08984375 398.99609375 C79.41984375 398.99609375 79.74984375 398.99609375 80.08984375 398.99609375 C80.71484375 402.12109375 80.71484375 402.12109375 80.08984375 405.99609375 C77.09936283 408.63736777 73.6645392 410.26624783 70.08984375 411.99609375 C69.19007813 412.45113281 68.2903125 412.90617187 67.36328125 413.375 C48.11452185 422.66654813 26.12541541 423.709498 5.91015625 416.9296875 C-4.54667011 412.81485842 -14.1591192 407.02266173 -22.91015625 399.99609375 C-29.00440971 403.78441347 -34.4041568 408.41102659 -39.91015625 412.99609375 C-39.51183594 413.42019531 -39.11351562 413.84429688 -38.703125 414.28125 C-33.69835832 419.82180679 -30.19310154 425.14122025 -30.5703125 432.95703125 C-31.69465316 439.70307519 -35.51431134 444.23944854 -40.70703125 448.4609375 C-52.03141252 456.35186275 -65.81456916 457.42630192 -79.19140625 455.53125 C-88.67566746 453.46573435 -96.47782826 449.26915273 -102.8515625 441.90234375 C-103.91015625 439.99609375 -103.91015625 439.99609375 -104.91015625 433.99609375 C-111.18015625 433.99609375 -117.45015625 433.99609375 -123.91015625 433.99609375 C-124.24015625 435.64609375 -124.57015625 437.29609375 -124.91015625 438.99609375 C-130.84539522 447.62916862 -139.67345262 451.55674938 -149.73828125 453.55859375 C-164.72356087 455.62552887 -178.69540562 453.37553649 -191.16015625 444.74609375 C-195.45070025 440.45554975 -197.61881132 436.41009459 -198.34765625 430.37109375 C-197.58403302 424.48028599 -194.79672326 420.38415328 -190.91015625 415.99609375 C-190.25015625 415.66609375 -189.59015625 415.33609375 -188.91015625 414.99609375 C-189.75578125 414.36703125 -190.60140625 413.73796875 -191.47265625 413.08984375 C-198.09347584 408.11299574 -204.22933699 403.05470148 -209.91015625 396.99609375 C-210.90673748 395.99268662 -211.90560051 394.99151716 -212.91015625 393.99609375 C-213.26464844 394.40859375 -213.61914062 394.82109375 -213.984375 395.24609375 C-227.58148869 409.99550521 -249.3127181 417.97571953 -269.04907227 419.12011719 C-282.6672612 419.60955626 -295.98746653 418.60418466 -308.91015625 413.99609375 C-309.24015625 412.01609375 -309.57015625 410.03609375 -309.91015625 407.99609375 C-309.58015625 407.99609375 -309.25015625 407.99609375 -308.91015625 407.99609375 C-305.88145787 392.32568334 -302.86462632 376.65304228 -299.86186123 360.97764397 C-298.46731764 353.69917119 -297.06891626 346.42147959 -295.66137695 339.14550781 C-294.43443025 332.80301791 -293.21477757 326.45917623 -292.00382572 320.11361229 C-291.36251245 316.75441394 -290.71759375 313.39600013 -290.06393242 310.03918076 C-289.33566002 306.28944393 -288.62030602 302.53745784 -287.90795898 298.78466797 C-287.57996559 297.11986641 -287.57996559 297.11986641 -287.24534607 295.4214325 C-286.25803104 290.14775756 -286.00878001 286.30447433 -286.91015625 280.99609375 C-285.60740662 278.61476135 -285.60740662 278.61476135 -283.91015625 275.99609375 C-278.04577827 258.12383337 -279.34891565 238.69529765 -279.4014461 220.12990308 C-279.40959525 215.45659263 -279.39256977 210.78337619 -279.37770081 206.11009216 C-279.3470953 195.26304178 -279.3453707 184.41608584 -279.34735107 173.56900024 C-279.34875023 159.76701864 -279.33806529 145.96511006 -279.29877335 132.16318077 C-279.28641064 127.53326996 -279.28052083 122.90354357 -279.2902813 118.27362251 C-279.38244824 73.83099095 -274.07446109 35.32908942 -241.37451172 2.44824219 C-177.5375199 -60.85659732 -65.25866737 -60.91532844 0 0 Z " fill="#B87957" transform="translate(672.91015625,285.00390625)"/>
<path d="M0 0 C0.68964844 0.65871094 1.37929687 1.31742187 2.08984375 1.99609375 C2.68667969 2.54136719 3.28351563 3.08664062 3.8984375 3.6484375 C22.20482248 20.94014987 32.993494 44.6835076 38.08984375 68.99609375 C38.08984375 69.65609375 38.08984375 70.31609375 38.08984375 70.99609375 C38.74984375 70.99609375 39.40984375 70.99609375 40.08984375 70.99609375 C40.08984375 103.66609375 40.08984375 136.33609375 40.08984375 169.99609375 C41.07984375 170.32609375 42.06984375 170.65609375 43.08984375 170.99609375 C42.75984375 172.31609375 42.42984375 173.63609375 42.08984375 174.99609375 C41.42984375 174.99609375 40.76984375 174.99609375 40.08984375 174.99609375 C39.41925578 186.21951182 39.41925578 186.21951182 42.7265625 196.53515625 C44.77158904 198.17896806 46.8859981 199.57556709 49.08984375 200.99609375 C67.39463845 219.60380467 69.46519551 253.79404236 69.390625 278.13354492 C69.0977957 298.3139285 66.55754946 318.77012254 52.08984375 333.99609375 C51.30609375 334.84171875 50.52234375 335.68734375 49.71484375 336.55859375 C35.38853084 349.8615986 35.38853084 349.8615986 26.77734375 352.12109375 C25.79991211 352.39373047 25.79991211 352.39373047 24.80273438 352.671875 C20.80600664 353.73606877 17.21916589 354.18815524 13.08984375 353.99609375 C12.82042969 354.71925781 12.55101562 355.44242188 12.2734375 356.1875 C6.4465611 370.01431231 -4.7876815 382.39654999 -15.59765625 392.59375 C-17.84294077 394.92626686 -19.27577399 397.22391146 -20.91015625 399.99609375 C-22.57682292 400.66276042 -24.24348958 401.32942708 -25.91015625 401.99609375 C-27.98041513 403.67283235 -29.93500937 405.45049061 -31.90625 407.2421875 C-34.43285515 409.45358265 -37.06653038 411.21882758 -39.91015625 412.99609375 C-39.51183594 413.42019531 -39.11351562 413.84429688 -38.703125 414.28125 C-33.69835832 419.82180679 -30.19310154 425.14122025 -30.5703125 432.95703125 C-31.69465316 439.70307519 -35.51431134 444.23944854 -40.70703125 448.4609375 C-52.03141252 456.35186275 -65.81456916 457.42630192 -79.19140625 455.53125 C-88.73568982 453.45266247 -96.58662322 449.26755288 -102.8515625 441.70703125 C-104.01758016 439.82247134 -104.48939755 438.16134641 -104.91015625 435.99609375 C-105.90015625 436.32609375 -106.89015625 436.65609375 -107.91015625 436.99609375 C-109.24541342 437.07582851 -110.58427708 437.10380713 -111.921875 437.09375 C-112.67919922 437.09052734 -113.43652344 437.08730469 -114.21679688 437.08398438 C-115.00248047 437.07560547 -115.78816406 437.06722656 -116.59765625 437.05859375 C-117.39494141 437.05408203 -118.19222656 437.04957031 -119.01367188 437.04492188 C-120.97919882 437.03315225 -122.9446871 437.01521723 -124.91015625 436.99609375 C-125.28333984 438.12337891 -125.28333984 438.12337891 -125.6640625 439.2734375 C-128.57546647 445.63471828 -135.28918368 449.00110747 -141.59765625 451.37109375 C-155.44211818 456.08846596 -171.02842791 455.28584833 -184.28515625 449.12109375 C-190.94388279 445.44636085 -195.45693681 441.25873208 -197.91015625 433.99609375 C-198.55490598 428.65388171 -197.52593965 425.62401822 -194.91015625 420.99609375 C-194.22766335 419.33584507 -193.55831861 417.6700435 -192.91015625 415.99609375 C-193.62558594 415.53460937 -194.34101562 415.073125 -195.078125 414.59765625 C-200.89823965 410.78785287 -206.59919629 406.86184942 -212.16015625 402.68359375 C-212.7327417 402.26352051 -213.30532715 401.84344727 -213.89526367 401.41064453 C-215.48828125 400.1953125 -215.48828125 400.1953125 -217.91015625 397.99609375 C-217.91015625 397.00609375 -217.91015625 396.01609375 -217.91015625 394.99609375 C-218.90015625 394.99609375 -219.89015625 394.99609375 -220.91015625 394.99609375 C-222.453125 393.5625 -222.453125 393.5625 -224.09765625 391.55859375 C-226.52713632 388.64321767 -229.00246021 385.82680286 -231.59765625 383.05859375 C-253.9417194 357.74393261 -266.08353863 327.39420504 -273.91015625 294.99609375 C-274.57243651 292.32830941 -275.24127707 289.66223365 -275.91015625 286.99609375 C-277.32554687 287.04830078 -277.32554687 287.04830078 -278.76953125 287.1015625 C-287.34662055 287.28240474 -294.64804764 286.54712033 -302.91015625 283.99609375 C-303.88855469 283.70992187 -304.86695313 283.42375 -305.875 283.12890625 C-308.2262895 282.43638059 -310.57026328 281.72601612 -312.91015625 280.99609375 C-312.91015625 280.00609375 -312.91015625 279.01609375 -312.91015625 277.99609375 C-312.17410156 277.95871094 -311.43804688 277.92132812 -310.6796875 277.8828125 C-303.2618101 277.51631393 -303.2618101 277.51631393 -296.91015625 273.99609375 C-295.12671447 271.92654528 -295.12671447 271.92654528 -293.91015625 269.99609375 C-294.83828125 270.47046875 -295.76640625 270.94484375 -296.72265625 271.43359375 C-301.56172403 273.5258956 -306.6719585 273.96134617 -311.91015625 273.99609375 C-312.57015625 273.66609375 -313.23015625 273.33609375 -313.91015625 272.99609375 C-315.7434955 272.97578778 -317.57750935 273.00427561 -319.41015625 273.05859375 C-330.47600348 273.09811463 -338.20427552 270.23328453 -347.91015625 264.99609375 C-349.24082653 264.32412736 -350.57304238 263.65514513 -351.91015625 262.99609375 C-351.91015625 262.00609375 -351.91015625 261.01609375 -351.91015625 259.99609375 C-350.95753906 260.09148437 -350.00492188 260.186875 -349.0234375 260.28515625 C-347.76917969 260.39601563 -346.51492188 260.506875 -345.22265625 260.62109375 C-343.98128906 260.73710938 -342.73992187 260.853125 -341.4609375 260.97265625 C-337.98135456 260.99562379 -335.98530904 260.53661006 -332.91015625 258.99609375 C-334.61171875 258.84914063 -334.61171875 258.84914063 -336.34765625 258.69921875 C-352.17293714 257.19464079 -352.17293714 257.19464079 -357.91015625 252.99609375 C-358.76738281 252.37734375 -359.62460937 251.75859375 -360.5078125 251.12109375 C-367.11643258 246.03054733 -373.62918437 240.23674989 -377.91015625 232.99609375 C-378.1484375 229.6640625 -378.1484375 229.6640625 -377.91015625 226.99609375 C-375.03515625 227.18359375 -375.03515625 227.18359375 -371.91015625 227.99609375 C-371.62140625 228.77984375 -371.33265625 229.56359375 -371.03515625 230.37109375 C-370.07898206 233.38268039 -370.07898206 233.38268039 -366.41015625 234.74609375 C-361.67288139 236.28744972 -356.86161254 236.70184737 -351.91015625 236.99609375 C-351.91015625 236.33609375 -351.91015625 235.67609375 -351.91015625 234.99609375 C-353.14765625 234.86654297 -353.14765625 234.86654297 -354.41015625 234.734375 C-358.66581479 233.83669703 -362.06980763 232.17234571 -365.91015625 230.18359375 C-366.5959375 229.84005859 -367.28171875 229.49652344 -367.98828125 229.14257812 C-372.16461739 227.01854457 -376.14902945 224.79930857 -379.91015625 221.99609375 C-379.91015625 221.33609375 -379.91015625 220.67609375 -379.91015625 219.99609375 C-380.47605469 219.91617187 -381.04195312 219.83625 -381.625 219.75390625 C-386.8510194 218.02083315 -391.23931192 212.59112386 -394.16015625 208.0546875 C-395.88065412 204.35727141 -396.20500647 201.02571347 -395.91015625 196.99609375 C-389.36866927 197.49928506 -389.36866927 197.49928506 -387.1796875 199.87109375 C-384.06910381 202.78358519 -380.88522759 203.59042527 -376.84765625 204.74609375 C-375.76774414 205.07673828 -375.76774414 205.07673828 -374.66601562 205.4140625 C-371.65641505 206.3138688 -369.06691633 206.99609375 -365.91015625 206.99609375 C-367.05613281 206.54878906 -368.20210937 206.10148438 -369.3828125 205.640625 C-370.91295838 205.03044413 -372.44289527 204.41973896 -373.97265625 203.80859375 C-374.72482422 203.51662109 -375.47699219 203.22464844 -376.25195312 202.92382812 C-381.38033374 200.85915541 -385.60587394 198.48867873 -389.91015625 194.99609375 C-389.91015625 194.33609375 -389.91015625 193.67609375 -389.91015625 192.99609375 C-390.50699219 192.73828125 -391.10382812 192.48046875 -391.71875 192.21484375 C-397.11341033 189.21460485 -399.98356146 183.52075921 -401.78515625 177.80859375 C-402.73061464 174.44515271 -403.02180193 171.48812258 -402.91015625 167.99609375 C-398.68387677 167.48381745 -396.36240373 168.73523002 -392.79296875 170.90625 C-386.8404278 174.35180794 -381.74152423 175.36205989 -374.91015625 174.99609375 C-374.91015625 174.33609375 -374.91015625 173.67609375 -374.91015625 172.99609375 C-376.16828125 172.78984375 -377.42640625 172.58359375 -378.72265625 172.37109375 C-389.55184006 169.88514904 -396.96449117 164.3080545 -402.91015625 154.99609375 C-407.8079655 146.67312735 -406.70017418 136.4802758 -404.53515625 127.43359375 C-403.62945078 124.06235672 -402.57232321 121.06748921 -400.91015625 117.99609375 C-392.83745093 119.77208892 -386.92951032 124.66639246 -380.84765625 129.99609375 C-364.14434682 144.53245176 -345.35541431 146.00373216 -323.91015625 148.99609375 C-322.33693604 149.21894043 -322.33693604 149.21894043 -320.73193359 149.44628906 C-317.68881841 149.87216176 -314.64399127 150.2814514 -311.59765625 150.68359375 C-310.73011719 150.8029126 -309.86257813 150.92223145 -308.96875 151.04516602 C-298.99698703 152.30530383 -288.94547863 152.58731922 -278.91015625 152.99609375 C-278.920149 151.78817924 -278.920149 151.78817924 -278.93034363 150.55586243 C-278.99113281 142.8658787 -279.03646819 135.17601583 -279.06559277 127.48585224 C-279.08107059 123.53481384 -279.1019692 119.58397832 -279.13647461 115.63305664 C-279.49839826 73.03761596 -273.70187611 35.68341801 -242.875 3.95703125 C-178.89582926 -60.37607567 -66.14565939 -61.74328605 0 0 Z M-243.91015625 11.99609375 C-272.27224644 45.17273629 -274.08046556 82.30117251 -274.04448175 124.11035681 C-274.04191125 128.0441224 -274.04430899 131.97788591 -274.04586792 135.91165161 C-274.04767828 142.52313664 -274.0453155 149.13461044 -274.04052734 155.74609375 C-274.03510955 163.31274445 -274.03683387 170.87936808 -274.04235375 178.4460181 C-274.04694469 185.00978823 -274.047506 191.57355037 -274.04491508 198.13732159 C-274.0433818 202.02741316 -274.04307443 205.91749217 -274.04645157 209.80758286 C-274.05739186 224.49262563 -274.00059771 239.16626133 -273.47607422 253.84423828 C-273.43892366 254.90034239 -273.40177311 255.9564465 -273.36349678 257.04455376 C-271.32820816 307.25951715 -253.51427434 355.73115071 -216.91015625 390.99609375 C-216.10835937 391.805625 -215.3065625 392.61515625 -214.48046875 393.44921875 C-205.81418709 402.03647657 -197.01274247 407.31749301 -185.91015625 411.99609375 C-181.95480323 413.6719477 -178.07255648 415.4065208 -174.22265625 417.30859375 C-140.50704643 432.6974613 -100.20237443 432.98114342 -65.5859375 420.4765625 C-59.61745878 418.20651834 -54.05187002 415.86210244 -48.91015625 411.99609375 C-48.91015625 411.33609375 -48.91015625 410.67609375 -48.91015625 409.99609375 C-48.03230469 409.91488281 -47.15445313 409.83367187 -46.25 409.75 C-38.09192907 407.90847054 -31.50692209 400.05734791 -26.54296875 393.625 C-24.91015625 391.99609375 -24.91015625 391.99609375 -22.53515625 391.06640625 C-2.47930823 382.88887298 11.48808562 349.67548382 19.71484375 331.3828125 C30.2790427 306.21030718 35.30305381 279.22359858 35.21484375 251.99609375 C35.21871094 250.80242187 35.22257812 249.60875 35.2265625 248.37890625 C35.21960331 242.01820501 35.00278516 235.76626633 34.31640625 229.44116211 C33.73552292 223.17225414 33.9603525 216.95953125 34.6015625 210.70703125 C35.03262223 205.72338254 35.15614712 200.78046102 35.1171875 195.78125 C35.10893951 194.71557549 35.10893951 194.71557549 35.1005249 193.62837219 C35.0728788 190.68985944 35.03766614 187.75154982 34.99389648 184.81323242 C34.96366563 182.63589692 34.9459391 180.45872834 34.9296875 178.28125 C34.90442993 176.36131226 34.90442993 176.36131226 34.87866211 174.40258789 C35.08369228 171.09532092 35.76291327 168.98798657 37.08984375 165.99609375 C37.08984375 165.00609375 37.08984375 164.01609375 37.08984375 162.99609375 C36.42984375 162.99609375 35.76984375 162.99609375 35.08984375 162.99609375 C35.14313843 161.94651489 35.14313843 161.94651489 35.19750977 160.87573242 C35.35701814 157.64535501 35.50473725 154.41453603 35.65234375 151.18359375 C35.70841797 150.08337891 35.76449219 148.98316406 35.82226562 147.84960938 C35.87060547 146.75712891 35.91894531 145.66464844 35.96875 144.5390625 C36.03944702 143.05442505 36.03944702 143.05442505 36.11157227 141.53979492 C36.09339447 138.57518019 35.90246554 135.76097297 35.6105957 132.81640625 C35.04195615 126.97919641 34.92133885 121.18970562 34.87890625 115.328125 C34.85083246 113.11262289 34.82216796 110.89712819 34.79296875 108.68164062 C34.75189275 105.25057228 34.71492892 101.81964173 34.68847656 98.38842773 C34.37935993 61.3397337 23.97859678 31.67706956 -1.97265625 4.55859375 C-33.7502544 -26.46661001 -78.44453786 -40.68456738 -122.25683594 -40.35766602 C-167.93050472 -39.26071722 -212.76459234 -22.20488941 -243.91015625 11.99609375 Z " fill="#000000" transform="translate(1381.91015625,274.00390625)"/>
<path d="M0 0 C0.68964844 0.65871094 1.37929688 1.31742187 2.08984375 1.99609375 C2.68667969 2.54136719 3.28351563 3.08664062 3.8984375 3.6484375 C22.20482248 20.94014987 32.993494 44.6835076 38.08984375 68.99609375 C38.08984375 69.65609375 38.08984375 70.31609375 38.08984375 70.99609375 C38.74984375 70.99609375 39.40984375 70.99609375 40.08984375 70.99609375 C40.08984375 103.66609375 40.08984375 136.33609375 40.08984375 169.99609375 C41.07984375 170.32609375 42.06984375 170.65609375 43.08984375 170.99609375 C42.75984375 172.31609375 42.42984375 173.63609375 42.08984375 174.99609375 C41.42984375 174.99609375 40.76984375 174.99609375 40.08984375 174.99609375 C40.12013672 176.08510986 40.15042969 177.17412598 40.18164062 178.29614258 C40.85622308 202.86876299 41.24303837 227.4142495 41.08984375 251.99609375 C42.73984375 252.32609375 44.38984375 252.65609375 46.08984375 252.99609375 C46.08984375 253.32609375 46.08984375 253.65609375 46.08984375 253.99609375 C44.43984375 253.99609375 42.78984375 253.99609375 41.08984375 253.99609375 C41.40698613 259.94524732 41.9132975 265.15771721 44.24853516 270.65266418 C45.2147469 273.34400621 45.74879163 275.97622047 46.296875 278.78393555 C48.54092025 289.49937255 51.51960412 300.0204058 54.40234375 310.578125 C55.01888976 312.84577149 55.63517752 315.11348822 56.2512207 317.38127136 C57.53653345 322.10956514 58.8244126 326.83714968 60.11425781 331.56420898 C61.76275566 337.60618511 63.40560507 343.64967942 65.04664612 349.69368458 C66.3160935 354.36719352 67.58810739 359.04000083 68.8609314 363.71259117 C69.4676094 365.94062241 70.07359676 368.16884183 70.67886353 370.39725685 C71.52555872 373.51268797 72.37560984 376.62718455 73.2265625 379.74145508 C73.47288422 380.65022903 73.71920593 381.55900299 73.97299194 382.49531555 C75.49879725 388.06219074 77.20504292 393.54024409 79.08984375 398.99609375 C79.41984375 398.99609375 79.74984375 398.99609375 80.08984375 398.99609375 C80.71484375 402.12109375 80.71484375 402.12109375 80.08984375 405.99609375 C77.09936283 408.63736777 73.6645392 410.26624783 70.08984375 411.99609375 C69.19007813 412.45113281 68.2903125 412.90617187 67.36328125 413.375 C48.11452185 422.66654813 26.12541541 423.709498 5.91015625 416.9296875 C-4.54667011 412.81485842 -14.1591192 407.02266173 -22.91015625 399.99609375 C-29.00440971 403.78441347 -34.4041568 408.41102659 -39.91015625 412.99609375 C-39.51183594 413.42019531 -39.11351562 413.84429688 -38.703125 414.28125 C-33.69835832 419.82180679 -30.19310154 425.14122025 -30.5703125 432.95703125 C-31.69465316 439.70307519 -35.51431134 444.23944854 -40.70703125 448.4609375 C-52.03141252 456.35186275 -65.81456916 457.42630192 -79.19140625 455.53125 C-88.67566746 453.46573435 -96.47782826 449.26915273 -102.8515625 441.90234375 C-103.91015625 439.99609375 -103.91015625 439.99609375 -104.91015625 433.99609375 C-111.18015625 433.99609375 -117.45015625 433.99609375 -123.91015625 433.99609375 C-124.24015625 435.64609375 -124.57015625 437.29609375 -124.91015625 438.99609375 C-130.84539522 447.62916862 -139.67345262 451.55674938 -149.73828125 453.55859375 C-164.72356087 455.62552887 -178.69540562 453.37553649 -191.16015625 444.74609375 C-195.45070025 440.45554975 -197.61881132 436.41009459 -198.34765625 430.37109375 C-197.58403302 424.48028599 -194.79672326 420.38415328 -190.91015625 415.99609375 C-190.25015625 415.66609375 -189.59015625 415.33609375 -188.91015625 414.99609375 C-189.75578125 414.36703125 -190.60140625 413.73796875 -191.47265625 413.08984375 C-198.09347584 408.11299574 -204.22933699 403.05470148 -209.91015625 396.99609375 C-210.90673748 395.99268662 -211.90560051 394.99151716 -212.91015625 393.99609375 C-213.26464844 394.40859375 -213.61914062 394.82109375 -213.984375 395.24609375 C-227.58148869 409.99550521 -249.3127181 417.97571953 -269.04907227 419.12011719 C-282.6672612 419.60955626 -295.98746653 418.60418466 -308.91015625 413.99609375 C-309.24015625 412.01609375 -309.57015625 410.03609375 -309.91015625 407.99609375 C-309.58015625 407.99609375 -309.25015625 407.99609375 -308.91015625 407.99609375 C-305.88145787 392.32568334 -302.86462632 376.65304228 -299.86186123 360.97764397 C-298.46731764 353.69917119 -297.06891626 346.42147959 -295.66137695 339.14550781 C-294.43443025 332.80301791 -293.21477757 326.45917623 -292.00382572 320.11361229 C-291.36251245 316.75441394 -290.71759375 313.39600013 -290.06393242 310.03918076 C-289.33566002 306.28944393 -288.62030602 302.53745784 -287.90795898 298.78466797 C-287.57996559 297.11986641 -287.57996559 297.11986641 -287.24534607 295.4214325 C-286.25803104 290.14775756 -286.00878001 286.30447433 -286.91015625 280.99609375 C-285.60740662 278.61476135 -285.60740662 278.61476135 -283.91015625 275.99609375 C-278.04577827 258.12383337 -279.34891565 238.69529765 -279.4014461 220.12990308 C-279.40959525 215.45659263 -279.39256977 210.78337619 -279.37770081 206.11009216 C-279.3470953 195.26304178 -279.3453707 184.41608584 -279.34735107 173.56900024 C-279.34875023 159.76701864 -279.33806529 145.96511006 -279.29877335 132.16318077 C-279.28641064 127.53326996 -279.28052083 122.90354357 -279.2902813 118.27362251 C-279.38244824 73.83099095 -274.07446109 35.32908942 -241.37451172 2.44824219 C-177.5375199 -60.85659732 -65.25866737 -60.91532844 0 0 Z M-243.91015625 11.99609375 C-261.75712585 32.87264152 -271.94307839 57.50383906 -273.47061157 84.9641571 C-273.53290134 86.06215591 -273.53290134 86.06215591 -273.59644949 87.18233651 C-274.01310703 95.08215494 -274.06257737 102.97314171 -274.06787109 110.88208008 C-274.07255701 112.49071385 -274.07770338 114.09934632 -274.08326721 115.70797729 C-274.09441691 119.13333316 -274.10291247 122.55868101 -274.10938644 125.98404884 C-274.12020183 131.41173532 -274.14047537 136.83936246 -274.1625061 142.26701355 C-274.2239973 157.68766587 -274.2784837 173.108311 -274.31152344 188.52905273 C-274.32991287 197.07542494 -274.35888728 205.62169378 -274.39952815 214.16798991 C-274.42049486 218.67522441 -274.43604098 223.18232942 -274.43833542 227.68961525 C-274.44049465 231.92437851 -274.45649279 236.15887045 -274.48272514 240.39355087 C-274.48986635 241.93817711 -274.49204455 243.4828364 -274.48862267 245.02747536 C-274.47171734 254.11575069 -275.36289665 262.24691473 -277.91015625 270.99609375 C-278.3896286 273.3198187 -278.84331208 275.64915199 -279.26049805 277.98486328 C-279.5110759 279.3619743 -279.76247727 280.73893561 -280.01449585 282.11578369 C-280.15384426 282.88031105 -280.29319267 283.64483841 -280.43676376 284.43253326 C-281.39473855 289.6202504 -282.39849617 294.79932166 -283.39379883 299.97998047 C-285.69100571 311.96051984 -287.97722132 323.94311457 -290.2566576 335.92704582 C-291.63135458 343.15258569 -293.01045801 350.37723719 -294.39916992 357.60009766 C-295.61887002 363.94399179 -296.83056798 370.28935249 -298.03258628 376.63662159 C-298.66707903 379.98550852 -299.30559899 383.33351333 -299.95380592 386.67977524 C-300.67094917 390.39250702 -301.37393736 394.10764972 -302.07348633 397.82373047 C-302.29103073 398.9321933 -302.50857513 400.04065613 -302.73271179 401.18270874 C-302.91915253 402.1888623 -303.10559326 403.19501587 -303.29768372 404.23165894 C-303.46524076 405.1087042 -303.63279779 405.98574947 -303.80543232 406.88937187 C-303.85727067 407.9321992 -303.85727067 407.9321992 -303.91015625 408.99609375 C-298.07813035 414.82811965 -284.75969429 414.32536974 -276.91015625 414.37109375 C-253.65390652 414.17083649 -232.59954015 406.31934857 -215.91015625 389.99609375 C-215.33910156 389.44050781 -214.76804687 388.88492187 -214.1796875 388.3125 C-213.07583683 387.2210174 -211.98970043 386.11162274 -210.91015625 384.99609375 C-209.59015625 385.65609375 -208.27015625 386.31609375 -206.91015625 386.99609375 C-207.57015625 387.98609375 -208.23015625 388.97609375 -208.91015625 389.99609375 C-202.15076143 397.71945724 -195.71974104 404.56326633 -186.91015625 409.99609375 C-186.24628906 410.44210937 -185.58242188 410.888125 -184.8984375 411.34765625 C-157.84404953 429.23757608 -120.27328822 432.72034636 -88.91015625 426.99609375 C-75.32999148 424.17581472 -60.13804226 420.43824102 -48.91015625 411.99609375 C-48.91015625 411.33609375 -48.91015625 410.67609375 -48.91015625 409.99609375 C-48.03230469 409.91488281 -47.15445312 409.83367187 -46.25 409.75 C-38.76302869 408.05995852 -32.81569295 401.29403663 -28.09765625 395.49609375 C-25.75334882 392.64215427 -25.18243685 392.07530265 -21.47265625 390.99609375 C-20.62703125 390.99609375 -19.78140625 390.99609375 -18.91015625 390.99609375 C-18.99265625 391.74246094 -19.07515625 392.48882813 -19.16015625 393.2578125 C-19.16436933 396.06571617 -19.16436933 396.06571617 -17.28515625 397.953125 C0.08788751 411.52581544 19.09554224 417.37941434 41.08984375 415.99609375 C51.68445607 414.61181827 61.51241886 411.2376974 70.76586914 405.90991211 C71.86278076 405.27835205 72.95969238 404.64679199 74.08984375 403.99609375 C71.03598367 390.50598462 67.51675413 377.16089896 63.8984375 363.8125 C63.3057939 361.61878287 62.71335499 359.42501043 62.12110901 357.23118591 C60.88819131 352.66643718 59.65344633 348.10218828 58.41723633 343.53833008 C56.83864859 337.71024052 55.26374221 331.88116413 53.69007778 326.05174351 C52.47039542 321.53456009 51.24925705 317.01777134 50.02763557 312.50111198 C49.44644006 310.35195839 48.86557666 308.20271496 48.28506279 306.05337715 C47.47326143 303.04895704 46.65961688 300.04504203 45.84545898 297.04125977 C45.61005905 296.16884644 45.37465912 295.29643311 45.13212585 294.39758301 C43.5488597 288.56652701 41.85222727 282.77547196 40.08984375 276.99609375 C39.42984375 276.99609375 38.76984375 276.99609375 38.08984375 276.99609375 C38.15494792 275.140625 38.22005208 273.28515625 38.28515625 271.4296875 C38.1718233 268.84326119 38.1718233 268.84326119 37.08888245 265.90390015 C35.83334487 261.59092052 35.84505611 257.50176544 35.90991211 253.03759766 C35.91396372 252.17071194 35.91801533 251.30382622 35.92218971 250.41067123 C35.93184604 248.53756152 35.94597153 246.66447055 35.96411324 244.7914238 C36.01254589 239.71294832 36.0263957 234.63431669 36.04638672 229.55566406 C36.05401393 227.98567563 36.05401393 227.98567563 36.06179523 226.38397026 C36.10867164 215.82378157 36.02321453 205.26650364 35.90625 194.70703125 C35.89653168 193.7967429 35.88681335 192.88645454 35.87680054 191.9485817 C35.80694769 185.42269126 35.73063326 178.89688775 35.65234375 172.37109375 C35.64088066 171.40598122 35.62941757 170.44086868 35.61760712 169.44651031 C35.48013358 157.8726829 35.3362493 146.2989493 35.18705368 134.72526741 C35.11649187 129.21143062 35.05179307 123.69756449 34.99267578 118.18359375 C34.92728269 112.12716265 34.84977855 106.07105702 34.75900269 100.01495361 C34.73015179 97.96093712 34.70580635 95.90685105 34.68655396 93.85272217 C34.34651718 58.88542284 22.30074088 29.92374787 -1.97265625 4.55859375 C-33.7502544 -26.46661001 -78.44453786 -40.68456738 -122.25683594 -40.35766602 C-167.93050472 -39.26071722 -212.76459234 -22.20488941 -243.91015625 11.99609375 Z " fill="#000000" transform="translate(672.91015625,285.00390625)"/>
<path d="M0 0 C2.4375 0.1875 2.4375 0.1875 5 1 C6 3 6 3 7 5 C8.65614657 5.38218767 10.32457024 5.71395102 12 6 C14.09467496 7.57100622 14.88674557 8.39438685 15.37109375 10.984375 C15.88673873 13.43288332 15.88673873 13.43288332 19.3125 14.9375 C20.86945309 15.63747112 22.43254163 16.3238811 24 17 C24.81718506 17.3911499 25.63437012 17.7822998 26.47631836 18.18530273 C35.2149647 22.16860475 43.84118547 23.69414544 53.25 25.125 C54.85412205 25.37905657 56.45812501 25.63386617 58.06201172 25.8894043 C75.42124448 28.62671805 92.74423344 31.10392208 110.3203125 31.7890625 C113.62712407 31.97862495 116.74322056 32.42763809 120 33 C119.99333817 34.25486206 119.98667633 35.50972412 119.97981262 36.8026123 C119.91872458 48.68824576 119.87389522 60.57384693 119.84456348 72.45960236 C119.82897633 78.5686757 119.80786633 84.67762126 119.77368164 90.78662109 C119.74083871 96.69349913 119.72309487 102.60025504 119.71536827 108.50721741 C119.70986919 110.74921081 119.69913228 112.99119831 119.68280983 115.23313904 C119.60298105 126.66317714 119.75780875 137.49522201 122.35404968 148.66345215 C123.03572128 152.18451229 123.10802847 155.42247581 123 159 C120.29139335 159.05429278 117.58389099 159.09381211 114.875 159.125 C114.11445312 159.14175781 113.35390625 159.15851563 112.5703125 159.17578125 C107.96729269 159.21546246 104.33535996 158.75907577 100 157 C100.78375 156.38125 101.5675 155.7625 102.375 155.125 C105.96476736 152.21899785 107.22898151 150.85509246 108.125 146.375 C108.29257813 145.55773437 108.46015625 144.74046875 108.6328125 143.8984375 C108.75398438 143.27195312 108.87515625 142.64546875 109 142 C107.24967156 142.14183696 105.49974466 142.28863429 103.75 142.4375 C102.77546875 142.51871094 101.8009375 142.59992188 100.796875 142.68359375 C98.42349408 142.95209075 96.30332531 143.40784957 94 144 C91.67716989 144.28539892 89.35356277 144.50199416 87.0234375 144.71875 C84.93540683 144.89903949 84.93540683 144.89903949 83 146 C75.45715303 146.71158934 69.09082947 144.42125884 62 142 C64.47326605 139.52673395 67.07592903 138.45671278 70.22265625 137 C72.17279374 136.12126497 72.17279374 136.12126497 73 134 C73.66 134 74.32 134 75 134 C75 132.68 75 131.36 75 130 C74.175 130.165 73.35 130.33 72.5 130.5 C59.99746179 132.28607689 49.425677 127.90173322 39 121 C37.29482017 119.37275776 35.61813172 117.71382768 34 116 C35.02480469 115.95101562 36.04960938 115.90203125 37.10546875 115.8515625 C38.4661706 115.77648929 39.82684644 115.70094345 41.1875 115.625 C41.86103516 115.5940625 42.53457031 115.563125 43.22851562 115.53125 C47.19678975 115.29896078 50.40729879 114.71612524 54 113 C54 112.01 54 111.02 54 110 C52.60201172 109.58041016 52.60201172 109.58041016 51.17578125 109.15234375 C37.83447971 105.01588845 25.56043373 99.59632723 16 89 C16 88.34 16 87.68 16 87 C15.34 87 14.68 87 14 87 C12.375 85 12.375 85 11 83 C11.495 82.01 11.495 82.01 12 81 C12.94359375 81.52400391 12.94359375 81.52400391 13.90625 82.05859375 C24.03018902 87.44074808 31.78931224 87.1108151 43 86 C43 84.68 43 83.36 43 82 C41.35 81.67 39.7 81.34 38 81 C38 80.34 38 79.68 38 79 C36.35 78.67 34.7 78.34 33 78 C33 77.34 33 76.68 33 76 C31.72125 76.020625 30.4425 76.04125 29.125 76.0625 C22.34889478 75.32735651 18.5642925 70.67008736 14 66 C13.32453125 65.34773438 12.6490625 64.69546875 11.953125 64.0234375 C8.71134202 60.87863093 5.63207224 57.68490113 3 54 C3 53.34 3 52.68 3 52 C2.34 52 1.68 52 1 52 C1.33 51.34 1.66 50.68 2 50 C2.87785156 50.433125 2.87785156 50.433125 3.7734375 50.875 C13.23673905 54.96723851 24.98641309 55.77001214 35 53 C35 51.68 35 50.36 35 49 C33.02 49 31.04 49 29 49 C29 48.34 29 47.68 29 47 C28.26394531 46.81824219 27.52789063 46.63648438 26.76953125 46.44921875 C17.24336973 43.99531981 17.24336973 43.99531981 13 41 C11.7625 40.319375 11.7625 40.319375 10.5 39.625 C3.02867838 34.76864095 -0.66860654 27.48831753 -3.375 19.1875 C-4.02551005 15.86989875 -3.74121515 14.23920647 -3 11 C-2.835 10.12859375 -2.67 9.2571875 -2.5 8.359375 C-2.335 7.49828125 -2.17 6.6371875 -2 5.75 C-1.835 4.87859375 -1.67 4.0071875 -1.5 3.109375 C-1 1 -1 1 0 0 Z " fill="#B97A57" transform="translate(983,398)"/>
<path d="M0 0 C8.72457102 8.53069166 13.8197112 18.93298305 14.25 31.25 C13.79499099 41.31890909 11.84210306 51.20738843 4.8125 58.75 C-6.76013384 69.17394277 -18.9511877 74.16071182 -34.421875 74.03125 C-43.56180501 73.34859963 -56.69046568 69.9007882 -62.9609375 62.71875 C-64.1875 60.75 -64.1875 60.75 -64.1875 58.75 C-65.1775 58.42 -66.1675 58.09 -67.1875 57.75 C-73.78506417 49.39995785 -76.90420117 39.21496888 -76.52734375 28.6328125 C-75.14770622 16.92968033 -70.38112473 7.32426226 -61.609375 -0.5703125 C-41.99246341 -15.7594069 -19.53802007 -13.79154358 0 0 Z " fill="#000000" transform="translate(665.1875,411.25)"/>
<path d="M0 0 C8.81685449 8.62092439 13.83276846 19.06997695 14.25 31.5 C13.86960423 40.55079593 9.80880959 48.75738083 5.8125 56.75 C5.1525 56.75 4.4925 56.75 3.8125 56.75 C3.56242188 57.33910156 3.31234375 57.92820312 3.0546875 58.53515625 C-1.30882427 66.31538007 -11.1615736 70.03732655 -19.1875 72.75 C-30.90014229 75.67816057 -43.35136866 74.0807912 -53.89453125 68.25390625 C-56.75005462 66.40404378 -59.38229068 64.58960269 -61.7421875 62.12890625 C-63.2529909 60.4914669 -63.2529909 60.4914669 -66.1875 59.75 C-73.58989549 49.68947158 -77.6625398 38.26240655 -76.1875 25.75 C-73.62460725 12.56480334 -67.16397181 2.93839464 -56.06640625 -4.59375 C-36.91382375 -15.61233206 -17.40416561 -12.28529337 0 0 Z " fill="#000000" transform="translate(509.1875,413.25)"/>
<path d="M0 0 C16.79502891 14.39573906 23.48771276 38.03619262 25.71875 59.6171875 C27.3668641 82.29988602 27.23066763 108.10637088 13 127 C12.51015625 127.71542969 12.0203125 128.43085937 11.515625 129.16796875 C3.83498774 139.90945402 -5.2231967 147.42595873 -18.1015625 150.609375 C-21 151 -21 151 -24 150 C-23.57589844 149.13761719 -23.15179687 148.27523437 -22.71484375 147.38671875 C-12.14812103 125.55653289 -4.47311514 102.21947244 -2 78 C-1.34 78 -0.68 78 0 78 C0 52.26 0 26.52 0 0 Z " fill="#B97A57" transform="translate(1422,473)"/>
<path d="M0 0 C5.83946633 4.16950825 9.96387779 8.42501163 11.6796875 15.57421875 C11.6796875 17.88421875 11.6796875 20.19421875 11.6796875 22.57421875 C6.7296875 22.57421875 1.7796875 22.57421875 -3.3203125 22.57421875 C-3.6503125 24.88421875 -3.9803125 27.19421875 -4.3203125 29.57421875 C-6.11883224 34.12341574 -8.82469228 35.90131035 -13.13671875 37.84765625 C-17.85316648 39.41699306 -21.78767715 39.11514887 -26.5078125 37.44921875 C-29.90789145 35.18249945 -32.00752113 32.94428618 -34.3203125 29.57421875 C-34.6503125 27.59421875 -34.9803125 25.61421875 -35.3203125 23.57421875 C-40.6003125 23.57421875 -45.8803125 23.57421875 -51.3203125 23.57421875 C-52.8921412 17.28690395 -50.30216673 12.02774691 -47.13671875 6.51171875 C-36.2710885 -7.93279861 -14.43767902 -8.87163778 0 0 Z " fill="#000000" transform="translate(1287.3203125,475.42578125)"/>
<path d="M0 0 C5.85208884 4.178521 9.92827872 8.42263288 11.6796875 15.57421875 C11.6796875 17.55421875 11.6796875 19.53421875 11.6796875 21.57421875 C6.7296875 21.90421875 1.7796875 22.23421875 -3.3203125 22.57421875 C-3.6503125 24.88421875 -3.9803125 27.19421875 -4.3203125 29.57421875 C-6.11883224 34.12341574 -8.82469228 35.90131035 -13.13671875 37.84765625 C-17.85316648 39.41699306 -21.78767715 39.11514887 -26.5078125 37.44921875 C-29.90789145 35.18249945 -32.00752113 32.94428618 -34.3203125 29.57421875 C-34.6503125 27.59421875 -34.9803125 25.61421875 -35.3203125 23.57421875 C-40.6003125 23.57421875 -45.8803125 23.57421875 -51.3203125 23.57421875 C-52.89642179 18.84589088 -51.14271058 15.083314 -49.3203125 10.57421875 C-45.04803033 2.57774323 -38.18530455 -1.40635059 -30.0078125 -4.80078125 C-19.1713801 -6.63746471 -9.48120437 -5.82599258 0 0 Z " fill="#000000" transform="translate(575.3203125,489.42578125)"/>
<path d="M0 0 C8.7475877 5.91150249 14.87052205 13.38948032 17.55859375 23.69921875 C18.2931505 28.23578683 18.21546096 32.72669102 17.98046875 37.3046875 C17.32046875 37.3046875 16.66046875 37.3046875 15.98046875 37.3046875 C15.46484375 36.4796875 14.94921875 35.6546875 14.41796875 34.8046875 C8.87072327 26.10231727 0.09817854 20.34145505 -9.83203125 18.0546875 C-22.50546508 15.90697581 -34.7676186 17.41234322 -45.6953125 24.50390625 C-51.92168826 29.3280394 -56.47777137 34.83826786 -59.01953125 42.3046875 C-61.01953125 41.3046875 -61.01953125 41.3046875 -61.62890625 39.5625 C-63.47855921 28.8715059 -61.49401461 19.55680124 -55.45703125 10.6171875 C-42.00301341 -6.70180274 -19.00431224 -10.66995021 0 0 Z " fill="#FFFFFF" transform="translate(500.01953125,412.6953125)"/>
<path d="M0 0 C8.7475877 5.91150249 14.87052205 13.38948032 17.55859375 23.69921875 C18.2931505 28.23578683 18.21546096 32.72669102 17.98046875 37.3046875 C17.42359375 36.6034375 16.86671875 35.9021875 16.29296875 35.1796875 C15.52984375 34.2309375 14.76671875 33.2821875 13.98046875 32.3046875 C12.83578125 30.8196875 12.83578125 30.8196875 11.66796875 29.3046875 C5.07419873 21.53559292 -4.91316799 17.14688444 -15.01953125 16.3046875 C-28.04999426 15.45023091 -39.480092 18.40010806 -50.01953125 26.3046875 C-54.34653205 30.71608016 -57.55670447 35.65467313 -60.01953125 41.3046875 C-63.54644342 35.26256706 -62.65121367 27.89457909 -61.01953125 21.3046875 C-57.56301348 11.19236342 -50.44046415 3.20836969 -41.01953125 -1.6953125 C-27.11636813 -7.57136635 -13.31454677 -7.47543765 0 0 Z " fill="#FFFFFF" transform="translate(656.01953125,410.6953125)"/>
<path d="M0 0 C3.31709159 2.33656766 5.49571913 5.38349964 6.703125 9.25390625 C7.49154281 14.31863373 7.04119188 17.72332391 4 22 C-2.57344577 29.26538743 -11.69117873 32.54618149 -21.3125 33.23828125 C-32.79937567 33.46947896 -43.16276265 31.99585883 -52.4140625 24.5625 C-55.44337849 21.57795223 -57.07923681 19.14613929 -58 15 C-57.45287354 14.90501221 -56.90574707 14.81002441 -56.34204102 14.7121582 C-39.66818133 11.77851995 -23.86006095 8.73546004 -9.05078125 0.2578125 C-5.43663701 -1.23227002 -3.70192715 -1.1619938 0 0 Z " fill="#FFC90E" transform="translate(630,703)"/>
<path d="M0 0 C3.86383086 1.88237914 6.26011218 4.49899129 8.4375 8.1875 C9.81009211 12.5631113 9.80752614 16.00804167 8.4375 20.375 C3.06471333 27.93048125 -4.02231129 31.56864141 -12.9296875 33.7734375 C-25.10020218 35.68749471 -37.9009352 34.50118502 -48.1875 27.25 C-51.02055365 24.90107577 -52.97749918 22.55562673 -54.5625 19.1875 C-50.8541612 18.09854337 -47.15123687 17.07218294 -43.390625 16.1796875 C-30.28918155 13.01879971 -17.35101439 8.82403538 -5.67578125 1.953125 C-2.5625 0.1875 -2.5625 0.1875 0 0 Z " fill="#FFC90E" transform="translate(1336.5625,690.8125)"/>
<path d="M0 0 C3.30132134 0.98593516 6.40564937 2.25317862 9.57739258 3.59326172 C24.40391293 9.8548858 38.93772142 13.09847678 54.890625 14.86328125 C51.63142624 21.93308401 47.99047901 25.19449645 40.78125 28.12890625 C27.56169964 32.37591112 14.7235531 32.36310758 1.890625 26.86328125 C-2.70227022 24.50046232 -6.15037882 22.16074667 -9.234375 17.98828125 C-10.35930731 13.97066586 -10.334965 10.85261782 -9.109375 6.86328125 C-6.90385313 3.48148105 -4.44156617 -0.28787929 0 0 Z " fill="#FFC90E" transform="translate(490.109375,703.13671875)"/>
<path d="M0 0 C1.5064018 0.56120851 3.02907729 1.07998972 4.5625 1.5625 C6.81449343 2.27618593 8.88644704 2.94322352 11 4 C12.2051797 7.6155391 12.95800426 11.27522224 12 15 C8.68205823 18.22728762 5.20385454 19.97772201 0.9375 21.6875 C-0.59583984 22.31205078 -0.59583984 22.31205078 -2.16015625 22.94921875 C-11.18646473 26.28907705 -20.87551609 25.86258319 -30 23 C-30.66 20.69 -31.32 18.38 -32 16 C-33.32 15.67 -34.64 15.34 -36 15 C-36.8125 12.875 -36.8125 12.875 -37 10 C-31.95239608 2.57705305 -26.04304255 0.42832737 -17.4375 -1.4296875 C-5.19199272 -3.46132848 -5.19199272 -3.46132848 0 0 Z " fill="#FDACC6" transform="translate(655,516)"/>
<path d="M0 0 C4.0977072 0.55506791 7.49323963 2.00865544 11.22949219 3.67919922 C26.32555703 10.42719559 41.56201666 14.35374457 58 16 C55.81069383 21.2249936 51.89504549 23.44512976 47 26 C33.99199047 30.99879223 19.73451329 30.45764855 7 25 C2.40710478 22.63718107 -1.04100382 20.29746542 -4.125 16.125 C-5.24706735 12.1176166 -5.24143686 8.97749838 -4 5 C-1.9375 2 -1.9375 2 0 0 Z " fill="#FFC90E" transform="translate(1194,694)"/>
<path d="M0 0 C3.92906128 1.93017478 7.318735 4.00632517 9.39453125 8.01953125 C9.60176994 15.27288525 9.60176994 15.27288525 8.45703125 18.20703125 C3.92157223 22.37579358 -2.21628411 21.93547817 -8.04296875 22.14453125 C-9.65413574 22.20688965 -9.65413574 22.20688965 -11.29785156 22.27050781 C-20.61655251 22.48184817 -30.31352787 21.85745513 -37.54296875 15.20703125 C-38.10546875 11.83203125 -38.10546875 11.83203125 -37.54296875 8.20703125 C-27.63562064 -3.39049966 -13.60222437 -5.50705221 0 0 Z " fill="#FBABC3" transform="translate(1374.54296875,491.79296875)"/>
<path d="M0 0 C1.55576012 3.11152024 1.73142946 4.54233344 1 8 C-9.47310681 16.71009885 -22.77743475 18.94206572 -36 18 C-40.37630124 16.49093061 -42.58453681 14.90295181 -45 11 C-45.65816205 7.27041504 -45.59737718 3.73787434 -45 0 C-41.0865901 -4.86211534 -35.1095227 -5.73577695 -29.1328125 -6.484375 C-18.04977316 -7.32325396 -9.03636066 -7.19220542 0 0 Z " fill="#FDADC7" transform="translate(1203,496)"/>
<path d="M0 0 C2.269258 2.426777 2.93724947 3.63134062 3.5 6.9375 C2.82527337 11.07020058 1.16120858 12.33053497 -2 15 C-2.78375 15.70125 -3.5675 16.4025 -4.375 17.125 C-11.61210383 22.29435988 -18.19761991 23.02530821 -27 22 C-29.26384341 21.1720375 -31.16014245 20.1922339 -33.21875 18.94921875 C-35.9863098 17.4744007 -38.9214455 17.36942654 -42 17 C-44 15 -44 15 -44.375 12.25 C-43.89768801 8.11329607 -42.71339532 6.14182616 -40 3 C-37 1.8125 -37 1.8125 -34 1 C-32.65724831 0.01268258 -31.32267727 -0.98594743 -30 -2 C-21.01442492 -5.01570671 -8.59837846 -3.71073338 0 0 Z " fill="#FDADC6" transform="translate(493,515)"/>
<path d="M0 0 C3.92357274 2.97718334 5.9911714 6.53338544 8.1171875 10.8671875 C8.1171875 11.5271875 8.1171875 12.1871875 8.1171875 12.8671875 C7.01503906 12.85558594 5.91289063 12.84398437 4.77734375 12.83203125 C-3.95253157 12.77095605 -12.60450035 12.90093136 -21.31030273 13.59936523 C-25.05671839 13.8744533 -28.22647908 13.6835171 -31.8828125 12.8671875 C-32.2128125 13.1971875 -32.5428125 13.5271875 -32.8828125 13.8671875 C-34.90245449 13.93962803 -36.92448374 13.95095938 -38.9453125 13.9296875 C-40.05003906 13.92066406 -41.15476562 13.91164063 -42.29296875 13.90234375 C-43.57494141 13.88494141 -43.57494141 13.88494141 -44.8828125 13.8671875 C-43.71672545 8.56679184 -42.1583049 4.45149175 -37.8828125 0.8671875 C-25.51039215 -6.57230675 -12.73934055 -7.66474846 0 0 Z " fill="#FFC90E" transform="translate(573.8828125,494.1328125)"/>
<path d="M0 0 C3.92357274 2.97718334 5.9911714 6.53338544 8.1171875 10.8671875 C8.1171875 11.5271875 8.1171875 12.1871875 8.1171875 12.8671875 C7.01503906 12.85558594 5.91289063 12.84398437 4.77734375 12.83203125 C-3.95253157 12.77095605 -12.60450035 12.90093136 -21.31030273 13.59936523 C-25.05671839 13.8744533 -28.22647908 13.6835171 -31.8828125 12.8671875 C-32.2128125 13.1971875 -32.5428125 13.5271875 -32.8828125 13.8671875 C-34.90245449 13.93962803 -36.92448374 13.95095938 -38.9453125 13.9296875 C-40.05003906 13.92066406 -41.15476562 13.91164063 -42.29296875 13.90234375 C-43.57494141 13.88494141 -43.57494141 13.88494141 -44.8828125 13.8671875 C-43.71672545 8.56679184 -42.1583049 4.45149175 -37.8828125 0.8671875 C-25.51039215 -6.57230675 -12.73934055 -7.66474846 0 0 Z " fill="#FFC90E" transform="translate(1285.8828125,480.1328125)"/>
<path d="M0 0 C3.60168083 2.56131261 6.05405884 5.3763445 8.6640625 8.89453125 C9.14746094 9.38695312 9.63085938 9.879375 10.12890625 10.38671875 C12.96785645 13.29644611 13.96957481 15.29353747 13.9765625 19.26953125 C13.8734375 20.46578125 13.7703125 21.66203125 13.6640625 22.89453125 C12.6740625 22.89453125 11.6840625 22.89453125 10.6640625 22.89453125 C10.2928125 21.88390625 9.9215625 20.87328125 9.5390625 19.83203125 C7.65332053 15.46133958 4.95634887 12.28872172 1.6640625 8.89453125 C1.18453125 8.36730469 0.705 7.84007812 0.2109375 7.296875 C-6.49816477 0.67248362 -16.37774539 -2.34465644 -25.6484375 -2.60546875 C-33.71225891 -2.21943475 -40.68804177 0.37396215 -47.3359375 4.89453125 C-49.27288333 7.47656846 -49.27288333 7.47656846 -50.3359375 9.89453125 C-57.75576928 9.61166376 -61.67145981 7.95167791 -67.3984375 3.33203125 C-68.41067383 2.55182617 -68.41067383 2.55182617 -69.44335938 1.75585938 C-71.08706356 0.48519444 -72.71340888 -0.80787339 -74.3359375 -2.10546875 C-74.0059375 -2.76546875 -73.6759375 -3.42546875 -73.3359375 -4.10546875 C-68.45509138 -2.39151744 -64.95741781 0.34917677 -60.93359375 3.53125 C-57.58165338 5.29038863 -55.91311728 4.9657197 -52.3359375 3.89453125 C-49.71098968 1.60302048 -49.71098968 1.60302048 -47.3359375 -1.10546875 C-34.82595554 -13.99454107 -13.18323698 -8.09048781 0 0 Z " fill="#010000" transform="translate(1215.3359375,425.10546875)"/>
<path d="M0 0 C7.24641557 -0.31703068 15.03018811 0.49346779 20.95703125 4.9609375 C22.30040229 6.19215326 23.61010259 7.46188213 24.87109375 8.77734375 C26.76558386 10.62365019 26.76558386 10.62365019 30.625 10.203125 C34.25757651 8.80107792 37.38301583 7.36444778 40.625 5.203125 C41.12 7.183125 41.12 7.183125 41.625 9.203125 C38.75335434 11.90585033 37.31508159 13.15104337 33.3125 13.453125 C32.425625 13.370625 31.53875 13.288125 30.625 13.203125 C30.625 14.853125 30.625 16.503125 30.625 18.203125 C25.7311504 17.78365218 23.89406003 15.71736454 20.625 12.203125 C14.3395474 6.41389234 8.01923759 5.72536869 -0.25390625 5.890625 C-8.37412212 6.70366288 -14.98019303 10.19954273 -21.5 14.93359375 C-23.375 16.203125 -23.375 16.203125 -26.375 17.203125 C-27.36561266 19.16337272 -27.36561266 19.16337272 -28 21.515625 C-28.23976563 22.29550781 -28.47953125 23.07539063 -28.7265625 23.87890625 C-29.31263769 25.97959744 -29.86092491 28.08377771 -30.375 30.203125 C-31.365 30.203125 -32.355 30.203125 -33.375 30.203125 C-33.71246271 24.69123402 -32.83917454 21.13147408 -30.375 16.203125 C-30.00246094 15.40519531 -29.62992188 14.60726563 -29.24609375 13.78515625 C-26.66203801 10.21926722 -23.58076626 8.58121704 -19.75 6.515625 C-19.02796387 6.12060791 -18.30592773 5.72559082 -17.56201172 5.31860352 C-11.66650576 2.18392309 -6.63488505 0.56745727 0 0 Z " fill="#000000" transform="translate(1344.375,416.796875)"/>
<path d="M0 0 C1.12921875 -0.00257813 2.2584375 -0.00515625 3.421875 -0.0078125 C6.25 0.125 6.25 0.125 8.25 1.125 C7.95242275 4.3983498 7.55181397 6.65970347 5.75 9.4375 C2.09514522 11.90452698 -1.37993288 12.32825894 -5.75 12.125 C-9.4274407 10.6060571 -11.83328551 8.63897656 -13.75 5.125 C-13.4375 2.875 -13.4375 2.875 -12.75 1.125 C-8.44859676 0.30382302 -4.377264 -0.01008586 0 0 Z " fill="#FFC90E" transform="translate(558.75,510.875)"/>
<path d="M0 0 C-0.29757725 3.2733498 -0.69818603 5.53470347 -2.5 8.3125 C-6.15485478 10.77952698 -9.62993288 11.20325894 -14 11 C-17.7284064 9.46000605 -19.94123171 7.46739923 -22 4 C-22 3.01 -22 2.02 -22 1 C-14.64206267 0.08839714 -7.41017023 -0.11459026 0 0 Z " fill="#FFC90E" transform="translate(1279,498)"/>
<path d="M0 0 C2.125 0.375 2.125 0.375 4 1 C4.625 3.375 4.625 3.375 5 6 C4.34 6.66 3.68 7.32 3 8 C0.875 7.625 0.875 7.625 -1 7 C-1.625 4.625 -1.625 4.625 -2 2 C-1.34 1.34 -0.68 0.68 0 0 Z " fill="#FFFFFF" transform="translate(493,463)"/>
<path d="M0 0 C0.66 0.33 1.32 0.66 2 1 C1.63802104 3.62434747 1.17343943 4.82013689 -0.6875 6.75 C-3.60427292 8.32663401 -5.73290013 8.22275681 -9 8 C-6.17493137 5.0702992 -3.21203935 2.49825283 0 0 Z " fill="#0C0805" transform="translate(1384,422)"/>
<path d="M0 0 C1.32 0.66 2.64 1.32 4 2 C3.67 3.32 3.34 4.64 3 6 C1.68 6 0.36 6 -1 6 C-1.625 4.125 -1.625 4.125 -2 2 C-1.34 1.34 -0.68 0.68 0 0 Z " fill="#FFFFFF" transform="translate(652,462)"/>
<path d="M0 0 C0.66 0 1.32 0 2 0 C2 0.66 2 1.32 2 2 C1.34 2 0.68 2 0 2 C0 1.34 0 0.68 0 0 Z " fill="#FEE8EF" transform="translate(295,94)"/>
</svg>
